<svg xmlns="http://www.w3.org/2000/svg" xmlns:xlink="http://www.w3.org/1999/xlink" width="1366" zoomAndPan="magnify" viewBox="0 0 1024.5 613.499987" height="818" preserveAspectRatio="xMidYMid meet" version="1.0"><defs><clipPath id="269528904f"><path d="M 328.773438 222.65625 L 441.148438 222.65625 L 441.148438 335.03125 L 328.773438 335.03125 Z M 328.773438 222.65625 " clip-rule="nonzero"/></clipPath><clipPath id="5bc0013e83"><path d="M 384.960938 222.65625 C 353.929688 222.65625 328.773438 247.8125 328.773438 278.84375 C 328.773438 309.875 353.929688 335.03125 384.960938 335.03125 C 415.992188 335.03125 441.148438 309.875 441.148438 278.84375 C 441.148438 247.8125 415.992188 222.65625 384.960938 222.65625 Z M 384.960938 222.65625 " clip-rule="nonzero"/></clipPath><clipPath id="38314d30c3"><path d="M 328.773438 222.65625 L 441.144531 222.65625 L 441.144531 335.027344 L 328.773438 335.027344 Z M 328.773438 222.65625 " clip-rule="nonzero"/></clipPath><clipPath id="e88e90ef8f"><path d="M 384.960938 222.65625 C 353.929688 222.65625 328.773438 247.8125 328.773438 278.84375 C 328.773438 309.875 353.929688 335.027344 384.960938 335.027344 C 415.992188 335.027344 441.144531 309.875 441.144531 278.84375 C 441.144531 247.8125 415.992188 222.65625 384.960938 222.65625 Z M 384.960938 222.65625 " clip-rule="nonzero"/></clipPath></defs><path stroke-linecap="round" transform="matrix(0.749389, -0.000000000000000279, 0.000000000000000279, 0.749389, 99.497672, 269.100687)" fill="none" stroke-linejoin="miter" d="M 12.998064 13.001339 L 1088.20183 13.001339 " stroke="#5e5c53" stroke-width="26" stroke-opacity="1" stroke-miterlimit="4"/><path stroke-linecap="round" transform="matrix(0.00000000130793, 0.749389, -0.749389, 0.00000000130793, 109.237794, 242.979965)" fill="none" stroke-linejoin="miter" d="M 13.000843 12.999521 L 81.504549 12.999521 " stroke="#5e5c53" stroke-width="26" stroke-opacity="1" stroke-miterlimit="4"/><path stroke-linecap="round" transform="matrix(0.00000000130793, 0.749389, -0.749389, 0.00000000130793, 527.125542, 242.979965)" fill="none" stroke-linejoin="miter" d="M 13.000843 13.000894 L 81.504549 13.000894 " stroke="#5e5c53" stroke-width="26" stroke-opacity="1" stroke-miterlimit="4"/><path stroke-linecap="round" transform="matrix(0.00000000130793, 0.749389, -0.749389, 0.00000000130793, 662.214205, 242.979965)" fill="none" stroke-linejoin="miter" d="M 13.000843 12.999318 L 81.504549 12.999318 " stroke="#5e5c53" stroke-width="26" stroke-opacity="1" stroke-miterlimit="4"/><path stroke-linecap="round" transform="matrix(0, 0.749389, -0.749389, 0, 797.302844, 242.979965)" fill="none" stroke-linejoin="miter" d="M 13.000843 12.99771 L 81.504549 12.99771 " stroke="#5e5c53" stroke-width="26" stroke-opacity="1" stroke-miterlimit="4"/><path stroke-linecap="round" transform="matrix(0.00000000130793, 0.749389, -0.749389, 0.00000000130793, 392.105315, 243.434107)" fill="none" stroke-linejoin="miter" d="M 12.999486 12.999965 L 81.503192 12.999965 " stroke="#5e5c53" stroke-width="26" stroke-opacity="1" stroke-miterlimit="4"/><path stroke-linecap="round" transform="matrix(0.00000000130793, 0.749389, -0.749389, 0.00000000130793, 262.274865, 242.979965)" fill="none" stroke-linejoin="miter" d="M 13.000843 13.002076 L 81.504549 13.002076 " stroke="#5e5c53" stroke-width="26" stroke-opacity="1" stroke-miterlimit="4"/><g clip-path="url(#269528904f)"><g clip-path="url(#5bc0013e83)"><path fill="#faf6e3" d="M 328.773438 222.65625 L 441.148438 222.65625 L 441.148438 335.03125 L 328.773438 335.03125 Z M 328.773438 222.65625 " fill-opacity="1" fill-rule="nonzero"/></g></g><g clip-path="url(#38314d30c3)"><g clip-path="url(#e88e90ef8f)"><path stroke-linecap="butt" transform="matrix(0.749389, 0, 0, 0.749389, 328.772795, 222.655446)" fill="none" stroke-linejoin="miter" d="M 74.978585 0.00107299 C 33.569862 0.00107299 0.000856882 33.570078 0.000856882 74.978801 C 0.000856882 116.387524 33.569862 149.951317 74.978585 149.951317 C 116.387308 149.951317 149.951101 116.387524 149.951101 74.978801 C 149.951101 33.570078 116.387308 0.00107299 74.978585 0.00107299 Z M 74.978585 0.00107299 " stroke="#5e5c53" stroke-width="40" stroke-opacity="1" stroke-miterlimit="4"/></g></g><path stroke-linecap="round" transform="matrix(0.00000000130793, 0.749389, -0.749389, 0.00000000130793, 934.242774, 242.979965)" fill="none" stroke-linejoin="miter" d="M 13.000843 13.000953 L 81.504549 13.000953 " stroke="#5e5c53" stroke-width="26" stroke-opacity="1" stroke-miterlimit="4"/></svg>