<svg xmlns="http://www.w3.org/2000/svg" xmlns:xlink="http://www.w3.org/1999/xlink" width="1366" zoomAndPan="magnify" viewBox="0 0 1024.5 613.499987" height="818" preserveAspectRatio="xMidYMid meet" version="1.0"><defs><clipPath id="4b5371a979"><path d="M 461.714844 222.429688 L 574.089844 222.429688 L 574.089844 334.804688 L 461.714844 334.804688 Z M 461.714844 222.429688 " clip-rule="nonzero"/></clipPath><clipPath id="34784ff2eb"><path d="M 517.902344 222.429688 C 486.871094 222.429688 461.714844 247.585938 461.714844 278.617188 C 461.714844 309.648438 486.871094 334.804688 517.902344 334.804688 C 548.933594 334.804688 574.089844 309.648438 574.089844 278.617188 C 574.089844 247.585938 548.933594 222.429688 517.902344 222.429688 Z M 517.902344 222.429688 " clip-rule="nonzero"/></clipPath><clipPath id="0d2a55dd6b"><path d="M 461.714844 222.429688 L 574.050781 222.429688 L 574.050781 334.761719 L 461.714844 334.761719 Z M 461.714844 222.429688 " clip-rule="nonzero"/></clipPath><clipPath id="b7a608c49b"><path d="M 517.882812 222.429688 C 486.863281 222.429688 461.714844 247.574219 461.714844 278.59375 C 461.714844 309.613281 486.863281 334.761719 517.882812 334.761719 C 548.902344 334.761719 574.050781 309.613281 574.050781 278.59375 C 574.050781 247.574219 548.902344 222.429688 517.882812 222.429688 Z M 517.882812 222.429688 " clip-rule="nonzero"/></clipPath></defs><path stroke-linecap="round" transform="matrix(4.890711, -0.00000000000000182, 0.00000000000000182, 4.890711, 99.497672, 269.061314)" fill="none" stroke-linejoin="miter" d="M 1.999642 2.000207 L 166.733173 2.000207 " stroke="#5e5c53" stroke-width="4" stroke-opacity="1" stroke-miterlimit="4"/><path stroke-linecap="round" transform="matrix(0.0000000085359, 4.890711, -4.890711, 0.0000000085359, 109.249751, 243.007351)" fill="none" stroke-linejoin="miter" d="M 2.000059 1.999914 L 12.480706 1.999914 " stroke="#5e5c53" stroke-width="4" stroke-opacity="1" stroke-miterlimit="4"/><path stroke-linecap="round" transform="matrix(0.0000000085359, 4.890711, -4.890711, 0.0000000085359, 527.137556, 243.007351)" fill="none" stroke-linejoin="miter" d="M 2.000059 2.000136 L 12.480706 2.000136 " stroke="#5e5c53" stroke-width="4" stroke-opacity="1" stroke-miterlimit="4"/><path stroke-linecap="round" transform="matrix(0.0000000085359, 4.890711, -4.890711, 0.0000000085359, 662.226243, 243.007351)" fill="none" stroke-linejoin="miter" d="M 2.000059 1.9999 L 12.480706 1.9999 " stroke="#5e5c53" stroke-width="4" stroke-opacity="1" stroke-miterlimit="4"/><path stroke-linecap="round" transform="matrix(0, 4.890711, -4.890711, 0, 797.314834, 243.007351)" fill="none" stroke-linejoin="miter" d="M 2.000059 1.999643 L 12.480706 1.999643 " stroke="#5e5c53" stroke-width="4" stroke-opacity="1" stroke-miterlimit="4"/><path stroke-linecap="round" transform="matrix(0.0000000085359, 4.890711, -4.890711, 0.0000000085359, 392.117288, 243.461507)" fill="none" stroke-linejoin="miter" d="M 1.999848 1.999986 L 12.480495 1.999986 " stroke="#5e5c53" stroke-width="4" stroke-opacity="1" stroke-miterlimit="4"/><path stroke-linecap="round" transform="matrix(0.0000000085359, 4.890711, -4.890711, 0.0000000085359, 262.286839, 243.007351)" fill="none" stroke-linejoin="miter" d="M 2.000059 2.000309 L 12.480706 2.000309 " stroke="#5e5c53" stroke-width="4" stroke-opacity="1" stroke-miterlimit="4"/><g clip-path="url(#4b5371a979)"><g clip-path="url(#34784ff2eb)"><path fill="#faf6e3" d="M 461.714844 222.429688 L 574.089844 222.429688 L 574.089844 334.804688 L 461.714844 334.804688 Z M 461.714844 222.429688 " fill-opacity="1" fill-rule="nonzero"/></g></g><g clip-path="url(#0d2a55dd6b)"><g clip-path="url(#b7a608c49b)"><path stroke-linecap="butt" transform="matrix(4.890711, 0, 0, 4.890711, 461.715423, 222.428361)" fill="none" stroke-linejoin="miter" d="M 11.484504 0.00027131 C 5.141964 0.00027131 -0.0001185 5.141555 -0.0001185 11.484095 C -0.0001185 17.826636 5.141964 22.968718 11.484504 22.968718 C 17.827045 22.968718 22.969127 17.826636 22.969127 11.484095 C 22.969127 5.141555 17.827045 0.00027131 11.484504 0.00027131 Z M 11.484504 0.00027131 " stroke="#5e5c53" stroke-width="6.129082" stroke-opacity="1" stroke-miterlimit="4"/></g></g><path stroke-linecap="round" transform="matrix(0.0000000085359, 4.890711, -4.890711, 0.0000000085359, 934.254764, 243.007351)" fill="none" stroke-linejoin="miter" d="M 2.000059 2.00014 L 12.480706 2.00014 " stroke="#5e5c53" stroke-width="4" stroke-opacity="1" stroke-miterlimit="4"/></svg>