<svg xmlns="http://www.w3.org/2000/svg" xmlns:xlink="http://www.w3.org/1999/xlink" width="1366" zoomAndPan="magnify" viewBox="0 0 1024.5 613.499987" height="818" preserveAspectRatio="xMidYMid meet" version="1.0"><defs><clipPath id="77f30afcce"><path d="M 732.300781 222.65625 L 844.675781 222.65625 L 844.675781 335.03125 L 732.300781 335.03125 Z M 732.300781 222.65625 " clip-rule="nonzero"/></clipPath><clipPath id="5576ded4d1"><path d="M 788.488281 222.65625 C 757.457031 222.65625 732.300781 247.8125 732.300781 278.84375 C 732.300781 309.875 757.457031 335.03125 788.488281 335.03125 C 819.519531 335.03125 844.675781 309.875 844.675781 278.84375 C 844.675781 247.8125 819.519531 222.65625 788.488281 222.65625 Z M 788.488281 222.65625 " clip-rule="nonzero"/></clipPath><clipPath id="bc5af32267"><path d="M 732.300781 222.65625 L 844.675781 222.65625 L 844.675781 335.027344 L 732.300781 335.027344 Z M 732.300781 222.65625 " clip-rule="nonzero"/></clipPath><clipPath id="6612e5088a"><path d="M 788.488281 222.65625 C 757.457031 222.65625 732.300781 247.8125 732.300781 278.84375 C 732.300781 309.875 757.457031 335.027344 788.488281 335.027344 C 819.519531 335.027344 844.675781 309.875 844.675781 278.84375 C 844.675781 247.8125 819.519531 222.65625 788.488281 222.65625 Z M 788.488281 222.65625 " clip-rule="nonzero"/></clipPath></defs><path stroke-linecap="round" transform="matrix(0.749389, -0.000000000000000279, 0.000000000000000279, 0.749389, 99.497672, 269.100687)" fill="none" stroke-linejoin="miter" d="M 12.998064 13.001339 L 1088.20183 13.001339 " stroke="#5e5c53" stroke-width="26" stroke-opacity="1" stroke-miterlimit="4"/><path stroke-linecap="round" transform="matrix(0.00000000130793, 0.749389, -0.749389, 0.00000000130793, 109.237794, 242.979965)" fill="none" stroke-linejoin="miter" d="M 13.000843 12.999521 L 81.504549 12.999521 " stroke="#5e5c53" stroke-width="26" stroke-opacity="1" stroke-miterlimit="4"/><path stroke-linecap="round" transform="matrix(0.00000000130793, 0.749389, -0.749389, 0.00000000130793, 527.125542, 242.979965)" fill="none" stroke-linejoin="miter" d="M 13.000843 13.000894 L 81.504549 13.000894 " stroke="#5e5c53" stroke-width="26" stroke-opacity="1" stroke-miterlimit="4"/><path stroke-linecap="round" transform="matrix(0.00000000130793, 0.749389, -0.749389, 0.00000000130793, 662.214205, 242.979965)" fill="none" stroke-linejoin="miter" d="M 13.000843 12.999318 L 81.504549 12.999318 " stroke="#5e5c53" stroke-width="26" stroke-opacity="1" stroke-miterlimit="4"/><path stroke-linecap="round" transform="matrix(0, 0.749389, -0.749389, 0, 797.302844, 242.979965)" fill="none" stroke-linejoin="miter" d="M 13.000843 12.99771 L 81.504549 12.99771 " stroke="#5e5c53" stroke-width="26" stroke-opacity="1" stroke-miterlimit="4"/><path stroke-linecap="round" transform="matrix(0.00000000130793, 0.749389, -0.749389, 0.00000000130793, 392.105315, 243.434107)" fill="none" stroke-linejoin="miter" d="M 12.999486 12.999965 L 81.503192 12.999965 " stroke="#5e5c53" stroke-width="26" stroke-opacity="1" stroke-miterlimit="4"/><path stroke-linecap="round" transform="matrix(0.00000000130793, 0.749389, -0.749389, 0.00000000130793, 262.274865, 242.979965)" fill="none" stroke-linejoin="miter" d="M 13.000843 13.002076 L 81.504549 13.002076 " stroke="#5e5c53" stroke-width="26" stroke-opacity="1" stroke-miterlimit="4"/><g clip-path="url(#77f30afcce)"><g clip-path="url(#5576ded4d1)"><path fill="#faf6e3" d="M 732.300781 222.65625 L 844.675781 222.65625 L 844.675781 335.03125 L 732.300781 335.03125 Z M 732.300781 222.65625 " fill-opacity="1" fill-rule="nonzero"/></g></g><g clip-path="url(#bc5af32267)"><g clip-path="url(#6612e5088a)"><path stroke-linecap="butt" transform="matrix(0.749389, 0, 0, 0.749389, 732.301064, 222.655446)" fill="none" stroke-linejoin="miter" d="M 74.977351 0.00107299 C 33.568628 0.00107299 -0.000377417 33.570078 -0.000377417 74.978801 C -0.000377417 116.387524 33.568628 149.951317 74.977351 149.951317 C 116.386074 149.951317 149.955079 116.387524 149.955079 74.978801 C 149.955079 33.570078 116.386074 0.00107299 74.977351 0.00107299 Z M 74.977351 0.00107299 " stroke="#5e5c53" stroke-width="40" stroke-opacity="1" stroke-miterlimit="4"/></g></g><path stroke-linecap="round" transform="matrix(0.00000000130793, 0.749389, -0.749389, 0.00000000130793, 934.242774, 242.979965)" fill="none" stroke-linejoin="miter" d="M 13.000843 13.000953 L 81.504549 13.000953 " stroke="#5e5c53" stroke-width="26" stroke-opacity="1" stroke-miterlimit="4"/></svg>