<svg xmlns="http://www.w3.org/2000/svg" xmlns:xlink="http://www.w3.org/1999/xlink" width="1366" zoomAndPan="magnify" viewBox="0 0 1024.5 613.499987" height="818" preserveAspectRatio="xMidYMid meet" version="1.0"><defs><clipPath id="8c05a67418"><path d="M 43.308594 222.65625 L 155.683594 222.65625 L 155.683594 335.03125 L 43.308594 335.03125 Z M 43.308594 222.65625 " clip-rule="nonzero"/></clipPath><clipPath id="049ada10bb"><path d="M 99.496094 222.65625 C 68.464844 222.65625 43.308594 247.8125 43.308594 278.84375 C 43.308594 309.875 68.464844 335.03125 99.496094 335.03125 C 130.527344 335.03125 155.683594 309.875 155.683594 278.84375 C 155.683594 247.8125 130.527344 222.65625 99.496094 222.65625 Z M 99.496094 222.65625 " clip-rule="nonzero"/></clipPath><clipPath id="c84cdaa00a"><path d="M 43.308594 222.65625 L 155.683594 222.65625 L 155.683594 335.027344 L 43.308594 335.027344 Z M 43.308594 222.65625 " clip-rule="nonzero"/></clipPath><clipPath id="92dbf18fe0"><path d="M 99.496094 222.65625 C 68.464844 222.65625 43.308594 247.8125 43.308594 278.84375 C 43.308594 309.875 68.464844 335.027344 99.496094 335.027344 C 130.527344 335.027344 155.683594 309.875 155.683594 278.84375 C 155.683594 247.8125 130.527344 222.65625 99.496094 222.65625 Z M 99.496094 222.65625 " clip-rule="nonzero"/></clipPath></defs><path stroke-linecap="round" transform="matrix(0.749389, -0.000000000000000279, 0.000000000000000279, 0.749389, 99.497672, 269.100687)" fill="none" stroke-linejoin="miter" d="M 12.998064 13.001339 L 1088.20183 13.001339 " stroke="#8793c2" stroke-width="26" stroke-opacity="1" stroke-miterlimit="4"/><path stroke-linecap="round" transform="matrix(0.00000000130793, 0.749389, -0.749389, 0.00000000130793, 109.237794, 242.979965)" fill="none" stroke-linejoin="miter" d="M 13.000843 12.999521 L 81.504549 12.999521 " stroke="#8793c2" stroke-width="26" stroke-opacity="1" stroke-miterlimit="4"/><path stroke-linecap="round" transform="matrix(0.00000000130793, 0.749389, -0.749389, 0.00000000130793, 527.125542, 242.979965)" fill="none" stroke-linejoin="miter" d="M 13.000843 13.000894 L 81.504549 13.000894 " stroke="#8793c2" stroke-width="26" stroke-opacity="1" stroke-miterlimit="4"/><path stroke-linecap="round" transform="matrix(0.00000000130793, 0.749389, -0.749389, 0.00000000130793, 662.214205, 242.979965)" fill="none" stroke-linejoin="miter" d="M 13.000843 12.999318 L 81.504549 12.999318 " stroke="#8793c2" stroke-width="26" stroke-opacity="1" stroke-miterlimit="4"/><path stroke-linecap="round" transform="matrix(0, 0.749389, -0.749389, 0, 797.302844, 242.979965)" fill="none" stroke-linejoin="miter" d="M 13.000843 12.99771 L 81.504549 12.99771 " stroke="#8793c2" stroke-width="26" stroke-opacity="1" stroke-miterlimit="4"/><path stroke-linecap="round" transform="matrix(0.00000000130793, 0.749389, -0.749389, 0.00000000130793, 392.105315, 243.434107)" fill="none" stroke-linejoin="miter" d="M 12.999486 12.999965 L 81.503192 12.999965 " stroke="#8793c2" stroke-width="26" stroke-opacity="1" stroke-miterlimit="4"/><path stroke-linecap="round" transform="matrix(0.00000000130793, 0.749389, -0.749389, 0.00000000130793, 262.274865, 242.979965)" fill="none" stroke-linejoin="miter" d="M 13.000843 13.002076 L 81.504549 13.002076 " stroke="#8793c2" stroke-width="26" stroke-opacity="1" stroke-miterlimit="4"/><g clip-path="url(#8c05a67418)"><g clip-path="url(#049ada10bb)"><path fill="#8793c2" d="M 43.308594 222.65625 L 155.683594 222.65625 L 155.683594 335.03125 L 43.308594 335.03125 Z M 43.308594 222.65625 " fill-opacity="1" fill-rule="nonzero"/></g></g><g clip-path="url(#c84cdaa00a)"><g clip-path="url(#92dbf18fe0)"><path stroke-linecap="butt" transform="matrix(0.749389, 0, 0, 0.749389, 43.310376, 222.655446)" fill="none" stroke-linejoin="miter" d="M 74.97535 0.00107299 C 33.566627 0.00107299 -0.00237831 33.570078 -0.00237831 74.978801 C -0.00237831 116.387524 33.566627 149.951317 74.97535 149.951317 C 116.384073 149.951317 149.953078 116.387524 149.953078 74.978801 C 149.953078 33.570078 116.384073 0.00107299 74.97535 0.00107299 Z M 74.97535 0.00107299 " stroke="#8793c2" stroke-width="40" stroke-opacity="1" stroke-miterlimit="4"/></g></g><path stroke-linecap="round" transform="matrix(0.00000000130793, 0.749389, -0.749389, 0.00000000130793, 934.242774, 242.979965)" fill="none" stroke-linejoin="miter" d="M 13.000843 13.000953 L 81.504549 13.000953 " stroke="#8793c2" stroke-width="26" stroke-opacity="1" stroke-miterlimit="4"/></svg>