<svg xmlns="http://www.w3.org/2000/svg" xmlns:xlink="http://www.w3.org/1999/xlink" width="1366" zoomAndPan="magnify" viewBox="0 0 1024.5 613.499987" height="818" preserveAspectRatio="xMidYMid meet" version="1.0"><defs><clipPath id="a3ce56d356"><path d="M 196.347656 222.65625 L 308.722656 222.65625 L 308.722656 335.03125 L 196.347656 335.03125 Z M 196.347656 222.65625 " clip-rule="nonzero"/></clipPath><clipPath id="9c9371dc14"><path d="M 252.535156 222.65625 C 221.503906 222.65625 196.347656 247.8125 196.347656 278.84375 C 196.347656 309.875 221.503906 335.03125 252.535156 335.03125 C 283.566406 335.03125 308.722656 309.875 308.722656 278.84375 C 308.722656 247.8125 283.566406 222.65625 252.535156 222.65625 Z M 252.535156 222.65625 " clip-rule="nonzero"/></clipPath><clipPath id="8ed69c7cdd"><path d="M 196.347656 222.65625 L 308.71875 222.65625 L 308.71875 335.027344 L 196.347656 335.027344 Z M 196.347656 222.65625 " clip-rule="nonzero"/></clipPath><clipPath id="40ab3cbd5e"><path d="M 252.535156 222.65625 C 221.503906 222.65625 196.347656 247.8125 196.347656 278.84375 C 196.347656 309.875 221.503906 335.027344 252.535156 335.027344 C 283.566406 335.027344 308.71875 309.875 308.71875 278.84375 C 308.71875 247.8125 283.566406 222.65625 252.535156 222.65625 Z M 252.535156 222.65625 " clip-rule="nonzero"/></clipPath></defs><path stroke-linecap="round" transform="matrix(0.749389, -0.000000000000000279, 0.000000000000000279, 0.749389, 99.497672, 269.100687)" fill="none" stroke-linejoin="miter" d="M 12.998064 13.001339 L 1088.20183 13.001339 " stroke="#8793c2" stroke-width="26" stroke-opacity="1" stroke-miterlimit="4"/><path stroke-linecap="round" transform="matrix(0.00000000130793, 0.749389, -0.749389, 0.00000000130793, 109.237794, 242.979965)" fill="none" stroke-linejoin="miter" d="M 13.000843 12.999521 L 81.504549 12.999521 " stroke="#8793c2" stroke-width="26" stroke-opacity="1" stroke-miterlimit="4"/><path stroke-linecap="round" transform="matrix(0.00000000130793, 0.749389, -0.749389, 0.00000000130793, 527.125542, 242.979965)" fill="none" stroke-linejoin="miter" d="M 13.000843 13.000894 L 81.504549 13.000894 " stroke="#8793c2" stroke-width="26" stroke-opacity="1" stroke-miterlimit="4"/><path stroke-linecap="round" transform="matrix(0.00000000130793, 0.749389, -0.749389, 0.00000000130793, 662.214205, 242.979965)" fill="none" stroke-linejoin="miter" d="M 13.000843 12.999318 L 81.504549 12.999318 " stroke="#8793c2" stroke-width="26" stroke-opacity="1" stroke-miterlimit="4"/><path stroke-linecap="round" transform="matrix(0, 0.749389, -0.749389, 0, 797.302844, 242.979965)" fill="none" stroke-linejoin="miter" d="M 13.000843 12.99771 L 81.504549 12.99771 " stroke="#8793c2" stroke-width="26" stroke-opacity="1" stroke-miterlimit="4"/><path stroke-linecap="round" transform="matrix(0.00000000130793, 0.749389, -0.749389, 0.00000000130793, 392.105315, 243.434107)" fill="none" stroke-linejoin="miter" d="M 12.999486 12.999965 L 81.503192 12.999965 " stroke="#8793c2" stroke-width="26" stroke-opacity="1" stroke-miterlimit="4"/><path stroke-linecap="round" transform="matrix(0.00000000130793, 0.749389, -0.749389, 0.00000000130793, 262.274865, 242.979965)" fill="none" stroke-linejoin="miter" d="M 13.000843 13.002076 L 81.504549 13.002076 " stroke="#8793c2" stroke-width="26" stroke-opacity="1" stroke-miterlimit="4"/><g clip-path="url(#a3ce56d356)"><g clip-path="url(#9c9371dc14)"><path fill="#8793c2" d="M 196.347656 222.65625 L 308.722656 222.65625 L 308.722656 335.03125 L 196.347656 335.03125 Z M 196.347656 222.65625 " fill-opacity="1" fill-rule="nonzero"/></g></g><g clip-path="url(#8ed69c7cdd)"><g clip-path="url(#40ab3cbd5e)"><path stroke-linecap="butt" transform="matrix(0.749389, 0, 0, 0.749389, 196.347452, 222.655446)" fill="none" stroke-linejoin="miter" d="M 74.978 0.00107299 C 33.569277 0.00107299 0.000272278 33.570078 0.000272278 74.978801 C 0.000272278 116.387524 33.569277 149.951317 74.978 149.951317 C 116.386723 149.951317 149.955729 116.387524 149.955729 74.978801 C 149.955729 33.570078 116.386723 0.00107299 74.978 0.00107299 Z M 74.978 0.00107299 " stroke="#8793c2" stroke-width="40" stroke-opacity="1" stroke-miterlimit="4"/></g></g><path stroke-linecap="round" transform="matrix(0.00000000130793, 0.749389, -0.749389, 0.00000000130793, 934.242774, 242.979965)" fill="none" stroke-linejoin="miter" d="M 13.000843 13.000953 L 81.504549 13.000953 " stroke="#8793c2" stroke-width="26" stroke-opacity="1" stroke-miterlimit="4"/></svg>