<svg xmlns="http://www.w3.org/2000/svg" xmlns:xlink="http://www.w3.org/1999/xlink" width="1366" zoomAndPan="magnify" viewBox="0 0 1024.5 613.499987" height="818" preserveAspectRatio="xMidYMid meet" version="1.0"><defs><g/></defs><g fill="#8793c2" fill-opacity="1"><g transform="translate(90.96114, 378.916685)"><g><path d="M 110.546875 -108.671875 L 40.5 -108.671875 L 40.5 -80.921875 L 104.890625 -80.921875 L 104.890625 -57.5625 L 40.5 -57.5625 L 40.5 -23.34375 L 113.6875 -23.34375 L 113.6875 0 L 13.46875 0 L 13.46875 -132.015625 L 110.546875 -132.015625 Z M 110.546875 -108.671875 "/></g></g></g><g fill="#8793c2" fill-opacity="1"><g transform="translate(212.725795, 378.916685)"><g><path d="M 95.375 -132.015625 L 121.0625 -132.015625 L 121.0625 0 L 93.484375 0 L 39.609375 -94.203125 L 39.25 -94.203125 L 39.25 0 L 13.46875 0 L 13.46875 -132.015625 L 42.5625 -132.015625 L 95.015625 -40.046875 L 95.375 -40.046875 Z M 95.375 -132.015625 "/></g></g></g><g fill="#8793c2" fill-opacity="1"><g transform="translate(347.241617, 378.916685)"><g><path d="M 75.96875 -71.21875 L 131.109375 -71.21875 L 131.109375 0 L 112.703125 0 L 110.015625 -16.53125 C 99.835938 -3.175781 85.914062 3.5 68.25 3.5 C 50.59375 3.5 36.148438 -2.800781 24.921875 -15.40625 C 13.691406 -28.007812 8.078125 -44.753906 8.078125 -65.640625 C 8.078125 -86.535156 13.851562 -103.40625 25.40625 -116.25 C 36.96875 -129.09375 52.71875 -135.515625 72.65625 -135.515625 C 89.71875 -135.515625 103.335938 -131.21875 113.515625 -122.625 C 123.691406 -114.039062 129.378906 -103.519531 130.578125 -91.0625 L 103.09375 -91.0625 C 101.414062 -97.644531 97.925781 -102.894531 92.625 -106.8125 C 87.332031 -110.738281 81.15625 -112.703125 74.09375 -112.703125 C 62.289062 -112.703125 53.019531 -108.476562 46.28125 -100.03125 C 39.550781 -91.59375 36.1875 -80.039062 36.1875 -65.375 C 36.1875 -50.769531 39.429688 -39.53125 45.921875 -31.65625 C 52.421875 -23.78125 61.988281 -19.84375 74.625 -19.84375 C 81.75 -19.84375 88.273438 -22.144531 94.203125 -26.75 C 100.128906 -31.363281 104.289062 -38.757812 106.6875 -48.9375 L 75.96875 -48.9375 Z M 75.96875 -71.21875 "/></g></g></g><g fill="#8793c2" fill-opacity="1"><g transform="translate(490.916726, 378.916685)"><g><path d="M 72.828125 -73.90625 C 80.078125 -73.90625 85.453125 -75.28125 88.953125 -78.03125 C 92.453125 -80.789062 94.203125 -85.4375 94.203125 -91.96875 C 94.203125 -97.351562 92.570312 -101.585938 89.3125 -104.671875 C 86.050781 -107.753906 81.242188 -109.296875 74.890625 -109.296875 L 40.5 -109.296875 L 40.5 -73.90625 Z M 13.46875 -132.015625 L 80.203125 -132.015625 C 93.785156 -132.015625 104.109375 -128.375 111.171875 -121.09375 C 118.242188 -113.820312 121.78125 -105.039062 121.78125 -94.75 C 121.78125 -79.414062 114.984375 -68.9375 101.390625 -63.3125 C 107.671875 -60.914062 112.023438 -57.457031 114.453125 -52.9375 C 116.878906 -48.414062 118.09375 -40.257812 118.09375 -28.46875 C 118.09375 -16.726562 118.523438 -9.828125 119.390625 -7.765625 C 120.265625 -5.703125 121.78125 -4.28125 123.9375 -3.5 L 123.9375 0 L 93.484375 0 C 91.515625 -5.925781 90.53125 -14.488281 90.53125 -25.6875 C 90.53125 -35.082031 89.898438 -41.140625 88.640625 -43.859375 C 87.378906 -46.585938 85.296875 -48.566406 82.390625 -49.796875 C 79.492188 -51.023438 75.019531 -51.640625 68.96875 -51.640625 L 40.5 -51.640625 L 40.5 0 L 13.46875 0 Z M 13.46875 -132.015625 "/></g></g></g><g fill="#8793c2" fill-opacity="1"><g transform="translate(621.571267, 378.916685)"><g><path d="M 41.046875 0 L 13.46875 0 L 13.46875 -132.015625 L 41.046875 -132.015625 Z M 41.046875 0 "/></g></g></g><g fill="#8793c2" fill-opacity="1"><g transform="translate(676.078024, 378.916685)"><g><path d="M 34.125 -40.6875 C 34.125 -34.15625 36.53125 -28.957031 41.34375 -25.09375 C 46.164062 -21.238281 53.070312 -19.3125 62.0625 -19.3125 C 71.039062 -19.3125 77.878906 -20.757812 82.578125 -23.65625 C 87.273438 -26.5625 89.625 -30.832031 89.625 -36.46875 C 89.625 -39.8125 88.410156 -42.710938 85.984375 -45.171875 C 83.566406 -47.628906 77.804688 -49.9375 68.703125 -52.09375 L 46.25 -57.296875 C 32.0625 -60.648438 22.40625 -65.210938 17.28125 -70.984375 C 12.164062 -76.765625 9.609375 -84.742188 9.609375 -94.921875 C 9.609375 -106.835938 13.84375 -116.582031 22.3125 -124.15625 C 30.789062 -131.726562 43.5 -135.515625 60.4375 -135.515625 C 77.257812 -135.515625 90.023438 -131.265625 98.734375 -122.765625 C 107.453125 -114.265625 111.835938 -104.296875 111.890625 -92.859375 L 85.40625 -92.859375 C 84.800781 -99.328125 82.285156 -104.25 77.859375 -107.625 C 73.429688 -111.007812 66.9375 -112.703125 58.375 -112.703125 C 51.488281 -112.703125 45.9375 -111.28125 41.71875 -108.4375 C 37.5 -105.59375 35.390625 -101.75 35.390625 -96.90625 C 35.390625 -93.550781 36.316406 -90.765625 38.171875 -88.546875 C 40.023438 -86.328125 43.015625 -84.710938 47.140625 -83.703125 L 82.4375 -74.984375 C 95.1875 -71.867188 103.988281 -67.394531 108.84375 -61.5625 C 113.695312 -55.726562 116.125 -48.4375 116.125 -39.6875 C 116.125 -25.320312 111.140625 -14.53125 101.171875 -7.3125 C 91.203125 -0.101562 78.851562 3.5 64.125 3.5 C 45.082031 3.5 30.90625 -0.550781 21.59375 -8.65625 C 12.289062 -16.769531 7.640625 -27.445312 7.640625 -40.6875 Z M 34.125 -40.6875 "/></g></g></g><g fill="#8793c2" fill-opacity="1"><g transform="translate(799.369263, 378.916685)"><g><path d="M 120.15625 -132.015625 L 120.15625 0 L 92.59375 0 L 92.59375 -59.1875 L 41.046875 -59.1875 L 41.046875 0 L 13.46875 0 L 13.46875 -132.015625 L 41.046875 -132.015625 L 41.046875 -82 L 92.59375 -82 L 92.59375 -132.015625 Z M 120.15625 -132.015625 "/></g></g></g></svg>