<svg xmlns="http://www.w3.org/2000/svg" xmlns:xlink="http://www.w3.org/1999/xlink" width="1366" zoomAndPan="magnify" viewBox="0 0 1024.5 613.499987" height="818" preserveAspectRatio="xMidYMid meet" version="1.0"><defs><clipPath id="9f41a82102"><path d="M 596.285156 222.65625 L 708.660156 222.65625 L 708.660156 335.03125 L 596.285156 335.03125 Z M 596.285156 222.65625 " clip-rule="nonzero"/></clipPath><clipPath id="b908ec3413"><path d="M 652.472656 222.65625 C 621.441406 222.65625 596.285156 247.8125 596.285156 278.84375 C 596.285156 309.875 621.441406 335.03125 652.472656 335.03125 C 683.503906 335.03125 708.660156 309.875 708.660156 278.84375 C 708.660156 247.8125 683.503906 222.65625 652.472656 222.65625 Z M 652.472656 222.65625 " clip-rule="nonzero"/></clipPath><clipPath id="2b09a883b4"><path d="M 596.285156 222.65625 L 708.660156 222.65625 L 708.660156 335.027344 L 596.285156 335.027344 Z M 596.285156 222.65625 " clip-rule="nonzero"/></clipPath><clipPath id="4b6bfdbcab"><path d="M 652.472656 222.65625 C 621.441406 222.65625 596.285156 247.8125 596.285156 278.84375 C 596.285156 309.875 621.441406 335.027344 652.472656 335.027344 C 683.503906 335.027344 708.660156 309.875 708.660156 278.84375 C 708.660156 247.8125 683.503906 222.65625 652.472656 222.65625 Z M 652.472656 222.65625 " clip-rule="nonzero"/></clipPath></defs><path stroke-linecap="round" transform="matrix(0.749389, -0.000000000000000279, 0.000000000000000279, 0.749389, 99.497672, 269.100687)" fill="none" stroke-linejoin="miter" d="M 12.998064 13.001339 L 1088.20183 13.001339 " stroke="#8793c2" stroke-width="26" stroke-opacity="1" stroke-miterlimit="4"/><path stroke-linecap="round" transform="matrix(0.00000000130793, 0.749389, -0.749389, 0.00000000130793, 109.237794, 242.979965)" fill="none" stroke-linejoin="miter" d="M 13.000843 12.999521 L 81.504549 12.999521 " stroke="#8793c2" stroke-width="26" stroke-opacity="1" stroke-miterlimit="4"/><path stroke-linecap="round" transform="matrix(0.00000000130793, 0.749389, -0.749389, 0.00000000130793, 527.125542, 242.979965)" fill="none" stroke-linejoin="miter" d="M 13.000843 13.000894 L 81.504549 13.000894 " stroke="#8793c2" stroke-width="26" stroke-opacity="1" stroke-miterlimit="4"/><path stroke-linecap="round" transform="matrix(0.00000000130793, 0.749389, -0.749389, 0.00000000130793, 662.214205, 242.979965)" fill="none" stroke-linejoin="miter" d="M 13.000843 12.999318 L 81.504549 12.999318 " stroke="#8793c2" stroke-width="26" stroke-opacity="1" stroke-miterlimit="4"/><path stroke-linecap="round" transform="matrix(0, 0.749389, -0.749389, 0, 797.302844, 242.979965)" fill="none" stroke-linejoin="miter" d="M 13.000843 12.99771 L 81.504549 12.99771 " stroke="#8793c2" stroke-width="26" stroke-opacity="1" stroke-miterlimit="4"/><path stroke-linecap="round" transform="matrix(0.00000000130793, 0.749389, -0.749389, 0.00000000130793, 392.105315, 243.434107)" fill="none" stroke-linejoin="miter" d="M 12.999486 12.999965 L 81.503192 12.999965 " stroke="#8793c2" stroke-width="26" stroke-opacity="1" stroke-miterlimit="4"/><path stroke-linecap="round" transform="matrix(0.00000000130793, 0.749389, -0.749389, 0.00000000130793, 262.274865, 242.979965)" fill="none" stroke-linejoin="miter" d="M 13.000843 13.002076 L 81.504549 13.002076 " stroke="#8793c2" stroke-width="26" stroke-opacity="1" stroke-miterlimit="4"/><g clip-path="url(#9f41a82102)"><g clip-path="url(#b908ec3413)"><path fill="#8793c2" d="M 596.285156 222.65625 L 708.660156 222.65625 L 708.660156 335.03125 L 596.285156 335.03125 Z M 596.285156 222.65625 " fill-opacity="1" fill-rule="nonzero"/></g></g><g clip-path="url(#2b09a883b4)"><g clip-path="url(#4b6bfdbcab)"><path stroke-linecap="butt" transform="matrix(0.749389, 0, 0, 0.749389, 596.286804, 222.655446)" fill="none" stroke-linejoin="miter" d="M 74.97553 0.00107299 C 33.566807 0.00107299 -0.0021984 33.570078 -0.0021984 74.978801 C -0.0021984 116.387524 33.566807 149.951317 74.97553 149.951317 C 116.384253 149.951317 149.953258 116.387524 149.953258 74.978801 C 149.953258 33.570078 116.384253 0.00107299 74.97553 0.00107299 Z M 74.97553 0.00107299 " stroke="#8793c2" stroke-width="40" stroke-opacity="1" stroke-miterlimit="4"/></g></g><path stroke-linecap="round" transform="matrix(0.00000000130793, 0.749389, -0.749389, 0.00000000130793, 934.242774, 242.979965)" fill="none" stroke-linejoin="miter" d="M 13.000843 13.000953 L 81.504549 13.000953 " stroke="#8793c2" stroke-width="26" stroke-opacity="1" stroke-miterlimit="4"/></svg>