<svg xmlns="http://www.w3.org/2000/svg" xmlns:xlink="http://www.w3.org/1999/xlink" width="1366" zoomAndPan="magnify" viewBox="0 0 1024.5 613.499987" height="818" preserveAspectRatio="xMidYMid meet" version="1.0"><defs><clipPath id="1c2f69e870"><path d="M 868.316406 222.65625 L 980.691406 222.65625 L 980.691406 335.03125 L 868.316406 335.03125 Z M 868.316406 222.65625 " clip-rule="nonzero"/></clipPath><clipPath id="4dae5ec5aa"><path d="M 924.503906 222.65625 C 893.472656 222.65625 868.316406 247.8125 868.316406 278.84375 C 868.316406 309.875 893.472656 335.03125 924.503906 335.03125 C 955.535156 335.03125 980.691406 309.875 980.691406 278.84375 C 980.691406 247.8125 955.535156 222.65625 924.503906 222.65625 Z M 924.503906 222.65625 " clip-rule="nonzero"/></clipPath><clipPath id="4d639ba8a6"><path d="M 868.316406 222.65625 L 980.6875 222.65625 L 980.6875 335.027344 L 868.316406 335.027344 Z M 868.316406 222.65625 " clip-rule="nonzero"/></clipPath><clipPath id="2de272221f"><path d="M 924.503906 222.65625 C 893.472656 222.65625 868.316406 247.8125 868.316406 278.84375 C 868.316406 309.875 893.472656 335.027344 924.503906 335.027344 C 955.53125 335.027344 980.6875 309.875 980.6875 278.84375 C 980.6875 247.8125 955.53125 222.65625 924.503906 222.65625 Z M 924.503906 222.65625 " clip-rule="nonzero"/></clipPath></defs><path stroke-linecap="round" transform="matrix(0.749389, -0.000000000000000279, 0.000000000000000279, 0.749389, 99.497672, 269.100687)" fill="none" stroke-linejoin="miter" d="M 12.998064 13.001339 L 1088.20183 13.001339 " stroke="#8793c2" stroke-width="26" stroke-opacity="1" stroke-miterlimit="4"/><path stroke-linecap="round" transform="matrix(0.00000000130793, 0.749389, -0.749389, 0.00000000130793, 109.237794, 242.979965)" fill="none" stroke-linejoin="miter" d="M 13.000843 12.999521 L 81.504549 12.999521 " stroke="#8793c2" stroke-width="26" stroke-opacity="1" stroke-miterlimit="4"/><path stroke-linecap="round" transform="matrix(0.00000000130793, 0.749389, -0.749389, 0.00000000130793, 527.125542, 242.979965)" fill="none" stroke-linejoin="miter" d="M 13.000843 13.000894 L 81.504549 13.000894 " stroke="#8793c2" stroke-width="26" stroke-opacity="1" stroke-miterlimit="4"/><path stroke-linecap="round" transform="matrix(0.00000000130793, 0.749389, -0.749389, 0.00000000130793, 662.214205, 242.979965)" fill="none" stroke-linejoin="miter" d="M 13.000843 12.999318 L 81.504549 12.999318 " stroke="#8793c2" stroke-width="26" stroke-opacity="1" stroke-miterlimit="4"/><path stroke-linecap="round" transform="matrix(0, 0.749389, -0.749389, 0, 797.302844, 242.979965)" fill="none" stroke-linejoin="miter" d="M 13.000843 12.99771 L 81.504549 12.99771 " stroke="#8793c2" stroke-width="26" stroke-opacity="1" stroke-miterlimit="4"/><path stroke-linecap="round" transform="matrix(0.00000000130793, 0.749389, -0.749389, 0.00000000130793, 392.105315, 243.434107)" fill="none" stroke-linejoin="miter" d="M 12.999486 12.999965 L 81.503192 12.999965 " stroke="#8793c2" stroke-width="26" stroke-opacity="1" stroke-miterlimit="4"/><path stroke-linecap="round" transform="matrix(0.00000000130793, 0.749389, -0.749389, 0.00000000130793, 262.274865, 242.979965)" fill="none" stroke-linejoin="miter" d="M 13.000843 13.002076 L 81.504549 13.002076 " stroke="#8793c2" stroke-width="26" stroke-opacity="1" stroke-miterlimit="4"/><path stroke-linecap="round" transform="matrix(0.00000000130793, 0.749389, -0.749389, 0.00000000130793, 934.242774, 242.979965)" fill="none" stroke-linejoin="miter" d="M 13.000843 13.000953 L 81.504549 13.000953 " stroke="#8793c2" stroke-width="26" stroke-opacity="1" stroke-miterlimit="4"/><g clip-path="url(#1c2f69e870)"><g clip-path="url(#4dae5ec5aa)"><path fill="#8793c2" d="M 868.316406 222.65625 L 980.691406 222.65625 L 980.691406 335.03125 L 868.316406 335.03125 Z M 868.316406 222.65625 " fill-opacity="1" fill-rule="nonzero"/></g></g><g clip-path="url(#4d639ba8a6)"><g clip-path="url(#2de272221f)"><path stroke-linecap="butt" transform="matrix(0.749389, 0, 0, 0.749389, 868.315372, 222.655446)" fill="none" stroke-linejoin="miter" d="M 74.979108 0.00107299 C 33.570385 0.00107299 0.00137956 33.570078 0.00137956 74.978801 C 0.00137956 116.387524 33.570385 149.951317 74.979108 149.951317 C 116.382618 149.951317 149.951623 116.387524 149.951623 74.978801 C 149.951623 33.570078 116.382618 0.00107299 74.979108 0.00107299 Z M 74.979108 0.00107299 " stroke="#8793c2" stroke-width="40" stroke-opacity="1" stroke-miterlimit="4"/></g></g></svg>