<svg xmlns="http://www.w3.org/2000/svg" xmlns:xlink="http://www.w3.org/1999/xlink" width="1366" zoomAndPan="magnify" viewBox="0 0 1024.5 613.499987" height="818" preserveAspectRatio="xMidYMid meet" version="1.0"><defs><clipPath id="d3bb905bb4"><path d="M 234.34375 61.300781 L 789.644531 61.300781 L 789.644531 160 L 234.34375 160 Z M 234.34375 61.300781 " clip-rule="nonzero"/></clipPath><clipPath id="609a95dbf4"><path d="M 234.34375 254 L 789.644531 254 L 789.644531 353 L 234.34375 353 Z M 234.34375 254 " clip-rule="nonzero"/></clipPath><clipPath id="278a2812b0"><path d="M 234.34375 447 L 789.644531 447 L 789.644531 546 L 234.34375 546 Z M 234.34375 447 " clip-rule="nonzero"/></clipPath></defs><g clip-path="url(#d3bb905bb4)"><path fill="#8793c2" d="M 283.628906 159.953125 L 740.359375 159.953125 C 767.578125 159.953125 789.644531 137.886719 789.644531 110.671875 C 789.644531 83.457031 767.578125 61.390625 740.359375 61.390625 L 283.628906 61.390625 C 256.414062 61.390625 234.34375 83.453125 234.34375 110.671875 C 234.34375 137.890625 256.410156 159.953125 283.628906 159.953125 Z M 283.628906 159.953125 " fill-opacity="1" fill-rule="nonzero"/></g><g clip-path="url(#609a95dbf4)"><path fill="#8793c2" d="M 740.359375 254.269531 L 283.628906 254.269531 C 256.414062 254.269531 234.34375 276.332031 234.34375 303.550781 C 234.34375 330.773438 256.410156 352.835938 283.628906 352.835938 L 740.359375 352.835938 C 767.578125 352.835938 789.644531 330.769531 789.644531 303.550781 C 789.644531 276.335938 767.578125 254.269531 740.359375 254.269531 Z M 740.359375 254.269531 " fill-opacity="1" fill-rule="nonzero"/></g><g clip-path="url(#278a2812b0)"><path fill="#8793c2" d="M 740.359375 447.148438 L 283.628906 447.148438 C 256.414062 447.148438 234.34375 469.210938 234.34375 496.433594 C 234.34375 523.652344 256.410156 545.714844 283.628906 545.714844 L 740.359375 545.714844 C 767.578125 545.714844 789.644531 523.648438 789.644531 496.433594 C 789.644531 469.214844 767.578125 447.148438 740.359375 447.148438 Z M 740.359375 447.148438 " fill-opacity="1" fill-rule="nonzero"/></g></svg>