<svg xmlns="http://www.w3.org/2000/svg" xmlns:xlink="http://www.w3.org/1999/xlink" width="1366" zoomAndPan="magnify" viewBox="0 0 1024.5 613.499987" height="818" preserveAspectRatio="xMidYMid meet" version="1.0"><path fill="#5e5c53" d="M 750.441406 485.785156 C 749.199219 477.039062 739.085938 463.363281 725.976562 459.414062 C 710.332031 454.699219 714.332031 465.683594 717.207031 446.605469 C 717.945312 443.46875 718.082031 439.058594 718.832031 435.988281 C 720.234375 418.214844 721 415.171875 718.066406 397.65625 C 703.546875 311.011719 607.742188 223.128906 497.960938 236.101562 C 468.488281 239.582031 465.21875 246.167969 465.246094 243.398438 C 463.847656 235.375 459.871094 224.449219 461.070312 217.753906 C 463.796875 181.9375 483.285156 176.398438 494.105469 153.316406 C 503.734375 132.773438 504.394531 80.277344 504.054688 57.628906 C 503.160156 50.214844 504.144531 39.414062 495.726562 33.191406 C 494.644531 32.390625 494.824219 32.339844 494.335938 32.15625 C 487.355469 26.796875 477.285156 32.621094 469.8125 37.171875 C 453.441406 47.136719 435.578125 64.636719 434.238281 66.695312 C 423.082031 80.363281 420.457031 93.292969 415.875 102.867188 C 413.984375 106.816406 411.699219 110.578125 410.136719 114.679688 C 405.078125 127.933594 399.757812 146.492188 399.914062 160.75 C 399.964844 165.464844 400.90625 170.089844 401.859375 174.675781 C 396.121094 176.710938 393.316406 175.707031 390.296875 175.4375 C 390.03125 174.800781 388.144531 155.203125 383.949219 148.269531 C 355.4375 83.804688 337.398438 81.675781 312.777344 46.335938 C 307.433594 38.671875 300.839844 29.4375 291.300781 27.03125 C 272.109375 22.191406 283.863281 45.082031 287.085938 98.011719 C 287.804688 109.824219 286.867188 123.015625 292.242188 133.933594 C 296.359375 142.304688 304.9375 149.59375 311.335938 159.148438 C 329.875 186.816406 308.304688 187.46875 333.039062 205.261719 C 330.605469 211.292969 331.605469 217.875 331.753906 224.179688 C 330.199219 224.179688 326.4375 223.382812 323.371094 229.101562 C 318.832031 237.574219 322.753906 244.914062 322.722656 245.539062 C 321.933594 248.113281 320.386719 249.472656 314.414062 257.355469 C 306.183594 268.214844 305.238281 269.363281 303.183594 281.859375 C 301.75 290.550781 302.960938 293.308594 305.390625 306.046875 C 306.753906 317.609375 310.765625 323.679688 315.003906 331.171875 C 307.6875 341.8125 303.8125 353.21875 302.824219 365.539062 C 295.148438 422.351562 354.589844 427.894531 372.433594 462.636719 C 385.074219 487.25 371.957031 514.800781 352.746094 523.078125 C 348.539062 524.890625 350.316406 533.496094 357.074219 534.28125 C 358.351562 534.636719 359.632812 534.238281 360.90625 534.070312 C 361.234375 541.671875 373.109375 544.117188 382.351562 538.472656 C 371.53125 555.460938 356.242188 558.589844 354.992188 567.023438 C 354.222656 570.429688 361.457031 573.605469 364.945312 572.90625 C 368.144531 572.261719 367.640625 570.855469 368.003906 574.070312 C 369.121094 579.46875 376.550781 580.597656 381.921875 579.398438 C 382.371094 579.257812 384.734375 578.648438 384.773438 578.636719 C 391.121094 576.09375 389.300781 576.066406 390.625 575.898438 C 398.375 582.226562 415.253906 581.042969 424.546875 570.859375 C 432.601562 562.035156 441.601562 531.570312 452.804688 526.785156 C 453.285156 526.578125 485.878906 521.949219 491.121094 521.265625 C 497.8125 520.394531 499.496094 517.738281 541.941406 525.175781 C 549.902344 526.570312 557.917969 527.839844 565.726562 529.9375 C 567.027344 530.285156 568.394531 530.230469 569.683594 530.5625 C 566.105469 530.5625 548.964844 531.1875 519.648438 531.097656 C 508.378906 531.0625 501.042969 524.441406 484.789062 531.492188 C 470.929688 537.503906 464.558594 545.921875 461.867188 548.230469 C 459.480469 550.273438 437.121094 557.546875 455.1875 575.074219 C 467.339844 586.863281 479.808594 582.5625 481.683594 582.355469 C 483.464844 583.128906 494.5625 590.464844 509.351562 584.136719 C 526.679688 590.789062 536.386719 584.441406 552.4375 583.332031 C 557.527344 582.980469 562.570312 583.257812 567.664062 583.132812 C 641.074219 581.09375 636.710938 577.800781 647.679688 538.964844 C 651.542969 537.285156 655.21875 535.207031 658.769531 532.949219 C 669.148438 544.378906 705.75 547.621094 726.515625 531.710938 C 743.199219 518.925781 751.875 495.898438 750.441406 485.785156 Z M 750.441406 485.785156 " fill-opacity="1" fill-rule="nonzero"/></svg>