<svg xmlns="http://www.w3.org/2000/svg" xmlns:xlink="http://www.w3.org/1999/xlink" width="1366" zoomAndPan="magnify" viewBox="0 0 1024.5 613.499987" height="818" preserveAspectRatio="xMidYMid meet" version="1.0"><defs><clipPath id="6126f9fc44"><path d="M 126.457031 134.449219 L 897 134.449219 L 897 477 L 126.457031 477 Z M 126.457031 134.449219 " clip-rule="nonzero"/></clipPath></defs><g clip-path="url(#6126f9fc44)"><path fill="#5e5c53" d="M 511.074219 134.800781 L 499.933594 135.101562 L 477.46875 137.898438 C 463.007812 140.378906 449.582031 144.09375 437.1875 149.042969 C 424.796875 153.992188 413.4375 160.171875 403.113281 167.589844 C 382.460938 182.417969 365.949219 202.183594 353.566406 226.878906 C 339.960938 259.785156 332.734375 289.472656 331.878906 315.953125 C 329.675781 323.578125 332.621094 341.628906 340.722656 370.105469 C 345.078125 380.933594 351.03125 390.960938 358.574219 400.183594 C 308.539062 400.746094 272.378906 403.695312 250.09375 409.039062 C 237.273438 411.421875 197.277344 422.4375 130.117188 442.082031 C 127.648438 443.273438 126.464844 445.324219 126.570312 448.238281 C 130.238281 453.042969 140.703125 456.984375 157.964844 460.066406 C 167.707031 460.691406 184.734375 460.675781 209.046875 460.019531 C 234.882812 464.3125 255.957031 467.128906 272.265625 468.464844 C 285.484375 467.910156 308.941406 463.230469 342.636719 454.414062 C 350.621094 453.195312 357.234375 452.808594 362.484375 453.253906 C 366.152344 453.230469 383.425781 456.277344 414.300781 462.386719 L 458.421875 465.3125 C 500.722656 473.886719 526.96875 477.429688 537.164062 475.945312 C 551.679688 475.628906 573.839844 473.378906 603.640625 469.195312 C 644.757812 460.214844 693.179688 451.054688 748.914062 441.710938 C 760.71875 438.558594 770.40625 434.9375 777.964844 430.84375 C 796.882812 420.367188 810.070312 411.160156 817.527344 403.222656 C 828.015625 389.554688 838.097656 371.398438 847.777344 348.746094 L 888.808594 309.589844 C 894.65625 300.0625 897.25 293.394531 896.589844 289.578125 C 895.445312 279.582031 888.394531 270.816406 875.445312 263.285156 C 867.335938 259.5 857.308594 256.351562 845.367188 253.832031 C 839.089844 252.886719 834.210938 253.203125 830.726562 254.785156 C 822.195312 257.988281 810.304688 267.027344 795.042969 281.898438 L 733.59375 358.789062 C 728.535156 363.78125 725.078125 365.765625 723.230469 364.742188 C 714.703125 322.652344 704.953125 284.15625 693.988281 249.25 C 684.316406 232.011719 673.898438 217.109375 662.726562 204.542969 C 644.980469 185.203125 625.136719 169.867188 603.195312 158.535156 C 592.226562 152.871094 580.730469 148.203125 568.710938 144.539062 C 556.6875 140.875 544.144531 138.210938 531.074219 136.546875 L 511.074219 134.800781 " fill-opacity="1" fill-rule="nonzero"/></g><path fill="#5e5c53" d="M 812.929688 190.832031 L 811.25 194.757812 C 810.585938 196.167969 809.226562 199.792969 807.179688 205.640625 C 805.691406 210.179688 804.632812 214.316406 804.003906 218.058594 C 803.296875 222.605469 802.910156 228.167969 802.855469 234.746094 L 802.953125 239 C 803.078125 241.765625 803.320312 244.402344 803.679688 246.90625 L 804.304688 250.558594 C 804.78125 252.929688 805.375 255.164062 806.085938 257.269531 L 807.734375 261.640625 C 808.855469 264.441406 810.027344 267.019531 811.246094 269.378906 C 814.90625 276.449219 819.003906 281.519531 823.535156 284.589844 L 825.824219 266.117188 C 816.917969 251.363281 811.617188 236.878906 809.925781 222.660156 C 809.5625 219.609375 809.375 216.625 809.371094 213.714844 C 809.3125 212.964844 809.410156 210.820312 809.660156 207.277344 C 809.921875 204.464844 810.28125 201.824219 810.75 199.34375 C 810.980469 198.105469 811.242188 196.910156 811.527344 195.753906 C 811.636719 195.121094 812.121094 193.484375 812.984375 190.832031 L 812.929688 190.832031 " fill-opacity="1" fill-rule="nonzero"/><path fill="#5e5c53" d="M 841.808594 191.40625 L 841.710938 191.414062 C 841.449219 191.441406 841.132812 191.59375 840.765625 191.867188 L 838.546875 195.546875 C 837.136719 198.054688 835.867188 200.664062 834.738281 203.382812 L 833.148438 207.535156 C 832.160156 210.355469 831.308594 213.285156 830.597656 216.3125 L 829.636719 220.9375 L 828.882812 225.71875 L 828.34375 230.660156 C 828.234375 232.332031 828.167969 234.003906 828.144531 235.671875 C 828.082031 236.507812 828.144531 239 828.339844 243.144531 C 828.554688 246.457031 828.945312 249.753906 829.507812 253.035156 C 829.691406 254.320312 830.265625 257.085938 831.230469 261.328125 C 831.625 262.898438 832.019531 264.289062 832.421875 265.496094 C 833.222656 267.914062 834.046875 269.601562 834.890625 270.5625 L 846.132812 257.25 C 841.59375 247.589844 838.886719 236.597656 838.011719 224.273438 C 837.679688 215.476562 839.214844 204.867188 842.628906 192.449219 C 842.441406 191.683594 842.167969 191.335938 841.808594 191.40625 " fill-opacity="1" fill-rule="nonzero"/><path fill="#5e5c53" d="M 848.046875 176.117188 L 846.820312 176.179688 C 845.1875 176.351562 843.585938 176.875 842.015625 177.746094 C 841.230469 178.183594 840.453125 178.710938 839.683594 179.324219 L 838.535156 180.3125 L 837.398438 181.433594 C 836.777344 182.171875 836.230469 182.921875 835.753906 183.6875 L 835.09375 184.835938 C 834.695312 185.609375 834.367188 186.394531 834.109375 187.1875 L 833.785156 188.386719 C 833.605469 189.191406 833.496094 190.007812 833.464844 190.832031 C 833.410156 192.609375 833.632812 194.351562 834.132812 196.058594 L 834.550781 197.253906 C 834.863281 198.03125 835.242188 198.765625 835.691406 199.453125 C 836.136719 200.144531 836.648438 200.792969 837.226562 201.398438 L 838.144531 202.269531 L 838.191406 202.90625 C 840.4375 202.683594 842.421875 202.238281 844.148438 201.574219 C 845.007812 201.242188 845.804688 200.855469 846.539062 200.410156 L 847.585938 199.707031 C 849.671875 198.097656 851.496094 195.546875 853.058594 192.058594 L 853.621094 190.5 C 853.953125 189.457031 854.1875 188.394531 854.328125 187.316406 C 854.621094 184.960938 854.519531 182.9375 854.035156 181.246094 C 853.570312 179.582031 852.765625 178.3125 851.621094 177.4375 C 851.050781 177 850.394531 176.660156 849.652344 176.417969 C 848.613281 176.132812 848.082031 176.03125 848.046875 176.117188 " fill-opacity="1" fill-rule="nonzero"/><path fill="#5e5c53" d="M 813.199219 177.878906 L 812.902344 177.882812 C 810.9375 177.902344 808.785156 179.234375 806.449219 181.886719 C 804.691406 183.898438 803.476562 186.433594 802.792969 189.496094 C 802.699219 189.777344 802.59375 190.648438 802.476562 192.113281 C 802.5625 193.824219 802.664062 194.832031 802.773438 195.136719 C 802.898438 195.785156 803.066406 196.421875 803.269531 197.039062 L 803.605469 197.949219 C 803.851562 198.550781 804.132812 199.136719 804.457031 199.710938 C 805.945312 202.488281 807.902344 203.867188 810.335938 203.851562 L 806.613281 205.617188 L 809.046875 205.140625 L 811.277344 204.371094 L 813.304688 203.300781 L 815.125 201.933594 L 816.746094 200.269531 L 818.160156 198.304688 L 819.375 196.046875 L 820.382812 193.488281 L 821.1875 190.632812 L 821.316406 189.171875 C 821.367188 188.226562 821.351562 187.335938 821.269531 186.503906 C 821.101562 184.835938 820.671875 183.394531 819.96875 182.179688 C 819.339844 181.015625 818.300781 179.976562 816.863281 179.058594 C 815.628906 178.277344 814.410156 177.882812 813.199219 177.878906 " fill-opacity="1" fill-rule="nonzero"/></svg>