<svg xmlns="http://www.w3.org/2000/svg" xmlns:xlink="http://www.w3.org/1999/xlink" width="1366" zoomAndPan="magnify" viewBox="0 0 1024.5 613.499987" height="818" preserveAspectRatio="xMidYMid meet" version="1.0"><defs><clipPath id="daaa913eaf"><path d="M 231.695312 61.300781 L 787.742188 61.300781 L 787.742188 551.402344 L 231.695312 551.402344 Z M 231.695312 61.300781 " clip-rule="nonzero"/></clipPath></defs><g clip-path="url(#daaa913eaf)"><path fill="#6d779e" d="M 1226.339844 332.925781 L 1226.339844 280.242188 C 1226.339844 269.625 1217.726562 261.007812 1207.101562 261.007812 C 1196.480469 261.007812 1187.863281 269.625 1187.863281 280.242188 L 1187.863281 332.925781 C 1187.863281 343.542969 1196.480469 352.164062 1207.101562 352.164062 C 1217.726562 352.164062 1226.339844 343.542969 1226.339844 332.925781 Z M 1148.199219 416.484375 L 1148.199219 196.683594 C 1148.199219 186.0625 1139.589844 177.449219 1128.964844 177.449219 C 1118.339844 177.449219 1109.730469 186.0625 1109.730469 196.683594 L 1109.730469 416.484375 C 1109.730469 427.109375 1118.339844 435.71875 1128.964844 435.71875 C 1139.589844 435.71875 1148.199219 427.109375 1148.199219 416.484375 Z M 1070.0625 368.28125 L 1070.0625 244.890625 C 1070.0625 234.265625 1061.449219 225.652344 1050.824219 225.652344 C 1040.203125 225.652344 1031.589844 234.265625 1031.589844 244.890625 L 1031.589844 368.28125 C 1031.589844 378.90625 1040.203125 387.515625 1050.824219 387.515625 C 1061.449219 387.515625 1070.0625 378.90625 1070.0625 368.28125 Z M 991.921875 470.742188 L 991.921875 142.425781 C 991.921875 131.804688 983.3125 123.191406 972.6875 123.191406 C 962.0625 123.191406 953.453125 131.804688 953.453125 142.425781 L 953.453125 470.742188 C 953.453125 481.367188 962.0625 489.976562 972.6875 489.976562 C 983.3125 489.976562 991.921875 481.367188 991.921875 470.742188 Z M 913.785156 406.027344 L 913.785156 207.144531 C 913.785156 196.519531 905.171875 187.910156 894.546875 187.910156 C 883.925781 187.910156 875.3125 196.519531 875.3125 207.144531 L 875.3125 406.027344 C 875.3125 416.652344 883.925781 425.261719 894.546875 425.261719 C 905.171875 425.261719 913.785156 416.652344 913.785156 406.027344 Z M 835.652344 335.039062 L 835.652344 278.132812 C 835.652344 267.507812 827.035156 258.898438 816.410156 258.898438 C 805.785156 258.898438 797.175781 267.507812 797.175781 278.132812 L 797.175781 335.039062 C 797.175781 345.660156 805.785156 354.273438 816.410156 354.273438 C 827.035156 354.273438 835.652344 345.660156 835.652344 335.039062 Z M 757.511719 364.242188 L 757.511719 248.929688 C 757.511719 238.304688 748.894531 229.6875 738.277344 229.6875 C 727.648438 229.6875 719.035156 238.304688 719.035156 248.929688 L 719.035156 364.242188 C 719.035156 374.863281 727.648438 383.484375 738.277344 383.484375 C 748.894531 383.484375 757.511719 374.863281 757.511719 364.242188 Z M 679.375 464.242188 L 679.375 148.929688 C 679.375 138.304688 670.761719 129.6875 660.140625 129.6875 C 649.515625 129.6875 640.90625 138.304688 640.90625 148.929688 L 640.90625 464.242188 C 640.90625 474.863281 649.515625 483.484375 660.140625 483.484375 C 670.761719 483.484375 679.375 474.863281 679.375 464.242188 Z M 601.234375 406.027344 L 601.234375 207.144531 C 601.234375 196.519531 592.625 187.910156 582 187.910156 C 571.375 187.910156 562.765625 196.519531 562.765625 207.144531 L 562.765625 406.027344 C 562.765625 416.652344 571.375 425.261719 582 425.261719 C 592.625 425.261719 601.234375 416.652344 601.234375 406.027344 Z M 523.097656 464.242188 L 523.097656 148.929688 C 523.097656 138.304688 514.484375 129.6875 503.863281 129.6875 C 493.238281 129.6875 484.628906 138.304688 484.628906 148.929688 L 484.628906 464.242188 C 484.628906 474.863281 493.238281 483.484375 503.863281 483.484375 C 514.484375 483.484375 523.097656 474.863281 523.097656 464.242188 Z M 444.957031 532.265625 L 444.957031 80.902344 C 444.957031 70.28125 436.347656 61.667969 425.722656 61.667969 C 415.097656 61.667969 406.488281 70.28125 406.488281 80.902344 L 406.488281 532.265625 C 406.488281 542.890625 415.097656 551.5 425.722656 551.5 C 436.347656 551.5 444.957031 542.890625 444.957031 532.265625 Z M 366.820312 351.066406 L 366.820312 262.105469 C 366.820312 251.480469 358.207031 242.863281 347.585938 242.863281 C 336.960938 242.863281 328.351562 251.480469 328.351562 262.105469 L 328.351562 351.066406 C 328.351562 361.691406 336.960938 370.308594 347.585938 370.308594 C 358.207031 370.308594 366.820312 361.691406 366.820312 351.066406 Z M 288.679688 387.632812 L 288.679688 225.535156 C 288.679688 214.914062 280.070312 206.300781 269.445312 206.300781 C 258.820312 206.300781 250.210938 214.914062 250.210938 225.535156 L 250.210938 387.632812 C 250.210938 398.257812 258.820312 406.867188 269.445312 406.867188 C 280.070312 406.867188 288.679688 398.257812 288.679688 387.632812 Z M 210.542969 437.527344 L 210.542969 175.644531 C 210.542969 165.019531 201.929688 156.410156 191.308594 156.410156 C 180.683594 156.410156 172.074219 165.019531 172.074219 175.644531 L 172.074219 437.527344 C 172.074219 448.148438 180.683594 456.761719 191.308594 456.761719 C 201.929688 456.761719 210.542969 448.148438 210.542969 437.527344 Z M 132.410156 406.027344 L 132.410156 207.144531 C 132.410156 196.519531 123.800781 187.910156 113.167969 187.910156 C 102.550781 187.910156 93.933594 196.519531 93.933594 207.144531 L 93.933594 406.027344 C 93.933594 416.652344 102.550781 425.261719 113.167969 425.261719 C 123.800781 425.261719 132.410156 416.652344 132.410156 406.027344 Z M 54.273438 510.90625 L 54.273438 102.261719 C 54.273438 91.644531 45.660156 83.027344 35.035156 83.027344 C 24.414062 83.027344 15.796875 91.644531 15.796875 102.261719 L 15.796875 510.90625 C 15.796875 521.523438 24.414062 530.144531 35.035156 530.144531 C 45.660156 530.144531 54.273438 521.523438 54.273438 510.90625 Z M -23.867188 327.0625 L -23.867188 286.109375 C -23.867188 275.484375 -32.476562 266.867188 -43.101562 266.867188 C -53.726562 266.867188 -62.335938 275.484375 -62.335938 286.109375 L -62.335938 327.0625 C -62.335938 337.683594 -53.726562 346.300781 -43.101562 346.300781 C -32.476562 346.300781 -23.867188 337.683594 -23.867188 327.0625 Z M -102.007812 434.246094 L -102.007812 178.925781 C -102.007812 168.300781 -110.617188 159.683594 -121.242188 159.683594 C -131.863281 159.683594 -140.476562 168.300781 -140.476562 178.925781 L -140.476562 434.246094 C -140.476562 444.867188 -131.863281 453.484375 -121.242188 453.484375 C -110.617188 453.484375 -102.007812 444.867188 -102.007812 434.246094 Z M -336.421875 383.027344 L -336.421875 230.140625 C -336.421875 219.519531 -345.03125 210.902344 -355.65625 210.902344 C -366.28125 210.902344 -374.890625 219.519531 -374.890625 230.140625 L -374.890625 383.027344 C -374.890625 393.652344 -366.28125 402.269531 -355.65625 402.269531 C -345.03125 402.269531 -336.421875 393.652344 -336.421875 383.027344 Z M -180.144531 383.027344 L -180.144531 230.140625 C -180.144531 219.519531 -188.753906 210.902344 -199.378906 210.902344 C -210.003906 210.902344 -218.613281 219.519531 -218.613281 230.140625 L -218.613281 383.027344 C -218.613281 393.652344 -210.003906 402.269531 -199.378906 402.269531 C -188.753906 402.269531 -180.144531 393.652344 -180.144531 383.027344 Z M -277.519531 483.484375 C -288.140625 483.484375 -296.753906 474.863281 -296.753906 464.242188 L -296.753906 148.929688 C -296.753906 138.304688 -288.140625 129.6875 -277.519531 129.6875 C -266.894531 129.6875 -258.285156 138.304688 -258.285156 148.929688 L -258.285156 464.242188 C -258.285156 474.863281 -266.894531 483.484375 -277.519531 483.484375 " fill-opacity="1" fill-rule="nonzero"/></g></svg>